<svg width="281" height="239" viewBox="0 0 281 239" fill="none" xmlns="http://www.w3.org/2000/svg">
<path opacity="0.1" d="M245.808 183.652H277.924C279.668 182.752 280.864 180.924 280.864 178.816C280.864 176.088 278.86 173.828 276.252 173.44C276.256 173.352 276.26 173.264 276.26 173.172C276.26 169.98 273.62 167.392 270.364 167.392C270.024 167.392 269.692 167.42 269.364 167.476C267.96 165.04 265.22 163.388 262.072 163.388C258.404 163.388 255.292 165.632 254.2 168.744C253.856 168.676 253.5 168.636 253.14 168.636C250.012 168.636 247.476 171.328 247.476 174.648C247.476 175.02 247.508 175.388 247.568 175.74C245.2 175.892 243.328 177.704 243.328 179.92C243.328 181.548 244.336 182.956 245.808 183.652Z" fill="white"/>
<path d="M267.652 133.824C267.652 59.916 207.736 0 133.824 0C59.916 0 0 59.916 0 133.824C0 175.984 19.504 213.584 49.972 238.112H217.68C248.148 213.584 267.652 175.984 267.652 133.824Z" fill="url(#paint0_linear_3_398)"/>
<path opacity="0.4" d="M171.04 81.82C171.04 82.644 170.78 83.308 170.46 83.308H137.56C137.24 83.308 136.98 82.64 136.98 81.82C136.98 80.996 137.24 80.332 137.56 80.332H170.46C170.78 80.332 171.04 81 171.04 81.82Z" fill="white"/>
<path opacity="0.4" d="M236.412 68.396C236.412 69.22 235.652 69.884 234.716 69.884H138.676C137.74 69.884 136.98 69.216 136.98 68.396C136.98 67.572 137.74 66.908 138.676 66.908H234.716C235.652 66.908 236.412 67.576 236.412 68.396ZM202.816 74.724C202.816 75.548 202.312 76.212 201.692 76.212H138.1C137.48 76.212 136.976 75.544 136.976 74.724C136.976 73.9 137.48 73.236 138.1 73.236H201.692C202.312 73.236 202.816 73.9 202.816 74.724Z" fill="white"/>
<path fill-rule="evenodd" clip-rule="evenodd" d="M89.86 230.988V230.644H111.888L89.86 230.988ZM82.984 230.988L64.032 230.644H82.984V230.988Z" fill="white"/>
<path d="M226.824 201.024C226.824 201.024 225.96 195.556 226.044 194.38C226.128 193.204 226.452 186.992 226.452 186.992L227.288 186.248C227.288 186.248 226.464 193.168 226.568 195.212C226.668 197.252 226.824 201.024 226.824 201.024Z" fill="url(#paint1_linear_3_398)"/>
<path fill-rule="evenodd" clip-rule="evenodd" d="M191.444 146.716H196.076V238.012H191.444V146.716Z" fill="#1289CC"/>
<path fill-rule="evenodd" clip-rule="evenodd" d="M189.168 146.716H193.8V238.012H189.168V146.716Z" fill="black"/>
<path fill-rule="evenodd" clip-rule="evenodd" d="M206.392 146.716H211.004V238.012H206.392V146.716Z" fill="#1289CC"/>
<path fill-rule="evenodd" clip-rule="evenodd" d="M204.116 146.716H208.728V238.012H204.116V146.716Z" fill="black"/>
<path fill-rule="evenodd" clip-rule="evenodd" d="M93.384 146.716H98.016V238.012H93.384V146.716Z" fill="#125CAE"/>
<path fill-rule="evenodd" clip-rule="evenodd" d="M91.1121 146.716H95.7441V238.012H91.1121V146.716Z" fill="black"/>
<path fill-rule="evenodd" clip-rule="evenodd" d="M108.332 146.716H112.944V238.012H108.332V146.716Z" fill="#1289CC"/>
<path fill-rule="evenodd" clip-rule="evenodd" d="M106.06 146.716H110.672V238.012H106.06V146.716Z" fill="black"/>
<path fill-rule="evenodd" clip-rule="evenodd" d="M74.168 142.928H219.948V151.972H74.168V142.928Z" fill="black"/>
<path fill-rule="evenodd" clip-rule="evenodd" d="M139.264 110.388L184.128 107.228L184.844 108.8L178.96 140.9H176.892L132.548 143.62L139.264 110.388Z" fill="url(#paint2_linear_3_398)"/>
<path fill-rule="evenodd" clip-rule="evenodd" d="M137.696 107.228H183.968L177.252 140.48H130.976L137.696 107.228Z" fill="black"/>
<path fill-rule="evenodd" clip-rule="evenodd" d="M164.688 140.42H177.388V142.924H164.688V140.42Z" fill="url(#paint3_linear_3_398)"/>
<path fill-rule="evenodd" clip-rule="evenodd" d="M121.912 140.42H164.688V142.924H121.912V140.42Z" fill="#431CA3"/>
<path fill-rule="evenodd" clip-rule="evenodd" d="M139.264 109.156L133.32 138.532H175.66L181.604 109.156H139.264Z" fill="#3F2759"/>
<path fill-rule="evenodd" clip-rule="evenodd" d="M147.056 142.928C148.488 143.104 151.508 142.648 153.656 141.26C155.784 139.868 157.472 138.548 157.472 138.548C157.472 138.548 162.108 139.152 162.404 138.092C162.532 136.676 156.396 135 155.544 134.9C154.668 134.8 147.476 135.812 146.74 136.548C146.004 137.28 147.056 142.928 147.056 142.928ZM123.084 138.892C124.516 139.072 127.536 138.616 129.664 137.224C131.792 135.832 133.82 133.804 133.82 133.804C133.82 133.804 138.452 134.24 138.352 133.804C138.232 133.388 132.428 130.96 131.552 130.864C130.696 130.764 123.484 131.78 122.748 132.516C122.012 133.244 123.084 138.892 123.084 138.892Z" fill="white"/>
<path fill-rule="evenodd" clip-rule="evenodd" d="M131.492 133.288C131.948 133.864 134.852 136.032 134.296 136.864C133.74 137.72 132.408 138.076 130.956 137.024C129.504 135.972 128.592 134.736 128.988 134.32C129.388 133.904 131.492 133.288 131.492 133.288Z" fill="white"/>
<path fill-rule="evenodd" clip-rule="evenodd" d="M69.6959 104.644C65.2839 106.432 66.3359 114.94 68.3439 121.044C70.3319 127.148 90.9439 141.556 97.0479 143.148C103.152 144.72 126.824 137.324 126.824 137.324C128.432 134.044 127.044 130.564 124.12 131.32C124.12 131.32 101.044 134.936 97.5839 130.944C94.7999 127.74 74.3679 102.756 69.6959 104.644Z" fill="url(#paint4_linear_3_398)"/>
<path fill-rule="evenodd" clip-rule="evenodd" d="M88.38 93.5919C81.164 108.12 66.3361 103.272 62.8401 89.38C59.3401 75.504 58.4281 63.52 70.5921 61.412C83.8081 59.124 95.616 79.0599 88.38 93.5919Z" fill="url(#paint5_linear_3_398)"/>
<path fill-rule="evenodd" clip-rule="evenodd" d="M65.8 93.912C67.172 98.224 66.752 109.792 66.752 109.792C66.752 109.792 86.2721 115.476 85.6761 112.852C83.2921 102.216 82.08 92.916 79.892 90.968C78.084 89.376 73.632 94.724 65.8 93.912Z" fill="white"/>
<path fill-rule="evenodd" clip-rule="evenodd" d="M105.572 224.86C105.572 224.86 109.764 229.928 115.192 232.196C120.62 234.464 123.064 235.436 122.188 236.828C121.312 238.22 114.356 237.564 109.108 237.744C103.88 237.924 100.344 238.32 100.164 236.652C99.9841 235.004 100.82 225.84 100.82 225.84L105.572 224.86Z" fill="black"/>
<path fill-rule="evenodd" clip-rule="evenodd" d="M97.9399 185.424C98.1399 191.108 100.068 233.736 100.068 233.736C101.416 235.292 110.328 232.096 110.952 229.932C110.952 229.932 114.776 182.48 113.284 182.26C111.816 182.064 97.9399 185.424 97.9399 185.424Z" fill="url(#paint6_linear_3_398)"/>
<path fill-rule="evenodd" clip-rule="evenodd" d="M151.372 225.06C151.372 225.06 155.568 230.128 160.972 232.416C166.4 234.684 168.844 235.636 167.968 237.048C167.092 238.44 160.136 237.764 154.908 237.944C149.66 238.124 146.124 238.52 145.944 236.872C145.764 235.204 146.6 226.04 146.6 226.04L151.372 225.06Z" fill="black"/>
<path fill-rule="evenodd" clip-rule="evenodd" d="M69.0201 168.268C68.3841 172.7 61.6441 179.64 69.8561 186.576C78.0641 193.512 130.92 187.648 131.596 188.584C132.272 189.5 145.352 234.472 145.352 234.472C145.352 234.472 156.668 234.116 156.076 229.484C151.708 217.42 152.428 178.904 143.584 174.688C134.752 170.476 69.0201 168.268 69.0201 168.268Z" fill="url(#paint7_linear_3_398)"/>
<path fill-rule="evenodd" clip-rule="evenodd" d="M90.6841 105.796C83.1121 103.788 60.4801 102.168 57.4481 108.64C50.4081 123.668 56.0121 181.412 65.8121 182.364C72.1121 182.98 103.384 182.024 104.436 170.676C105.812 155.748 91.9961 134.16 90.6841 105.796Z" fill="url(#paint8_linear_3_398)"/>
<path fill-rule="evenodd" clip-rule="evenodd" d="M56.844 152.916H64.516V191H56.844V152.916Z" fill="white"/>
<path fill-rule="evenodd" clip-rule="evenodd" d="M55.2119 152.608H62.8839V190.692H55.2119V152.608Z" fill="black"/>
<path fill-rule="evenodd" clip-rule="evenodd" d="M90.6841 105.796C86.2721 107.584 87.3041 116.112 89.3121 122.216C91.3201 128.3 111.932 142.708 118.036 144.3C124.14 145.872 148.548 142.792 148.548 142.792C150.14 139.512 148.768 136.032 145.824 136.788C145.824 136.788 122.012 136.092 118.552 132.096C115.792 128.892 95.3361 103.908 90.6841 105.796Z" fill="url(#paint9_linear_3_398)"/>
<path fill-rule="evenodd" clip-rule="evenodd" d="M83.012 75.2641C81.6 73.4761 85.456 80.9481 84.284 84.0881C84.304 80.7281 76.156 76.6721 79.296 85.7961C79.676 86.9081 80.148 91.6641 80.148 91.6641C80.068 93.6241 70.044 99.5441 66.736 97.2641C63.736 95.5161 58.984 88.4801 55.944 80.5881C52.884 72.6961 58.248 68.8401 58.248 68.8401C58.248 68.8401 57.512 66.8321 59.936 63.0561C61.824 60.0761 89.972 54.172 88.46 67.168C88.14 69.856 85.32 72.1841 83.012 75.2641Z" fill="black"/>
<path fill-rule="evenodd" clip-rule="evenodd" d="M49.9239 121.88H79.1199C81.2319 121.88 82.9759 124.224 82.9759 127.088V148.872C82.9759 151.736 81.2319 154.08 79.1199 154.08H49.9239C47.7959 154.08 46.0559 151.736 46.0559 148.872V127.088C46.0559 124.224 47.7959 121.88 49.9239 121.88Z" fill="white"/>
<path fill-rule="evenodd" clip-rule="evenodd" d="M47.056 121.944H76.252C78.364 121.944 80.108 124.288 80.108 127.152V148.936C80.108 151.8 78.364 154.144 76.252 154.144H47.056C44.928 154.144 43.188 151.8 43.188 148.936V127.152C43.184 124.288 44.928 121.944 47.056 121.944ZM82.984 192.66H89.86V231.48H82.984V192.66Z" fill="black"/>
<path fill-rule="evenodd" clip-rule="evenodd" d="M61.8921 230.644H111.844V233.368H61.8921V230.644Z" fill="black"/>
<path fill-rule="evenodd" clip-rule="evenodd" d="M110.792 237.7C112.82 237.7 114.448 236.068 114.448 234.064C114.448 232.036 112.82 230.408 110.792 230.408C108.784 230.408 107.156 232.036 107.156 234.064C107.152 236.072 108.784 237.7 110.792 237.7ZM85.98 237.62C88.008 237.62 89.636 235.988 89.636 233.984C89.636 231.956 88.004 230.328 85.98 230.328C83.972 230.328 82.344 231.956 82.344 233.984C82.34 235.988 83.972 237.62 85.98 237.62ZM62.052 237.7C64.06 237.7 65.708 236.068 65.708 234.064C65.708 232.036 64.06 230.408 62.052 230.408C60.044 230.408 58.396 232.036 58.396 234.064C58.396 236.072 60.044 237.7 62.052 237.7ZM54.172 186.576H118.652C121.096 186.576 123.084 188.564 123.084 190.988C123.084 193.432 121.096 195.42 118.652 195.42H54.172C51.748 195.42 49.76 193.432 49.76 190.988C49.76 188.564 51.748 186.576 54.172 186.576Z" fill="black"/>
<path fill-rule="evenodd" clip-rule="evenodd" d="M65.168 104.676C65.268 103.404 66.168 99.824 66.168 99.824C66.168 99.824 80.796 98.828 84.276 100.46C84.82 100.716 88.2 105.696 88.2 105.696C78.976 104.024 71.084 103.944 65.168 104.676Z" fill="#BCD8FA"/>
<path fill-rule="evenodd" clip-rule="evenodd" d="M139.264 109.156H181.604L181.336 110.472L138.984 110.552L139.264 109.156ZM175.444 113.732C175.444 113.932 175.284 114.092 175.084 114.092H141.608C141.408 114.092 141.248 113.932 141.248 113.732C141.248 113.532 141.408 113.372 141.608 113.372H175.084C175.284 113.372 175.444 113.532 175.444 113.732ZM168.868 115.776C168.868 115.976 168.736 116.136 168.572 116.136H141.128C140.964 116.136 140.832 115.976 140.832 115.776C140.832 115.576 140.964 115.416 141.128 115.416H168.572C168.736 115.416 168.868 115.58 168.868 115.776ZM168.46 118.304C168.46 118.504 168.328 118.664 168.164 118.664H140.72C140.556 118.664 140.424 118.504 140.424 118.304C140.424 118.104 140.556 117.944 140.72 117.944H168.164C168.328 117.944 168.46 118.104 168.46 118.304ZM174.08 120.516C174.08 120.716 173.92 120.876 173.72 120.876H140.208C140.008 120.876 139.848 120.716 139.848 120.516C139.848 120.316 140.008 120.156 140.208 120.156H173.72C173.92 120.156 174.08 120.32 174.08 120.516ZM172.84 125.784C172.84 125.984 172.68 126.144 172.48 126.144H138.968C138.768 126.144 138.608 125.984 138.608 125.784C138.608 125.584 138.768 125.424 138.968 125.424H172.48C172.676 125.424 172.84 125.584 172.84 125.784ZM160.708 123.016C160.708 123.216 160.608 123.376 160.484 123.376H139.624C139.5 123.376 139.4 123.216 139.4 123.016C139.4 122.816 139.5 122.656 139.624 122.656H160.484C160.608 122.656 160.708 122.816 160.708 123.016ZM153.736 128.08C153.736 128.28 153.664 128.44 153.576 128.44H138.516C138.428 128.44 138.356 128.28 138.356 128.08C138.356 127.88 138.428 127.72 138.516 127.72H153.572C153.664 127.72 153.736 127.88 153.736 128.08ZM165.232 130.856C165.232 131.056 165.104 131.216 164.944 131.216H137.984C137.824 131.216 137.696 131.056 137.696 130.856C137.696 130.656 137.828 130.496 137.984 130.496H164.944C165.1 130.496 165.232 130.656 165.232 130.856Z" fill="#1E8191"/>
<path d="M125.148 41.372C125.148 41.664 124.912 41.9 124.62 41.9C124.328 41.9 124.092 41.664 124.092 41.372C124.092 41.08 124.328 40.844 124.62 40.844C124.912 40.844 125.148 41.08 125.148 41.372ZM163.028 74.112C163.028 74.404 162.792 74.64 162.5 74.64C162.208 74.64 161.968 74.404 161.968 74.112C161.968 73.82 162.204 73.584 162.5 73.584C162.796 73.584 163.028 73.816 163.028 74.112ZM107.684 45.628C107.684 45.92 107.448 46.156 107.156 46.156C106.864 46.156 106.628 45.92 106.628 45.628C106.628 45.336 106.864 45.096 107.156 45.096C107.448 45.1 107.684 45.336 107.684 45.628ZM65.044 45.1C65.044 45.392 64.808 45.628 64.516 45.628C64.224 45.628 63.988 45.392 63.988 45.1C63.988 44.808 64.224 44.572 64.516 44.572C64.808 44.568 65.044 44.808 65.044 45.1ZM215.188 108.104C215.188 108.396 214.952 108.632 214.66 108.632C214.368 108.632 214.128 108.396 214.128 108.104C214.128 107.812 214.364 107.576 214.66 107.576C214.956 107.576 215.188 107.812 215.188 108.104ZM216.928 72.804L217.492 73.948L218.752 74.128L217.84 75.02L218.056 76.276L216.928 75.684L215.8 76.276L216.012 75.02L215.1 74.128L216.364 73.948L216.928 72.804ZM86.252 26.392L86.956 27.82L88.532 28.048L87.392 29.16L87.66 30.732L86.252 29.988L84.84 30.732L85.108 29.16L83.968 28.048L85.544 27.82L86.252 26.392ZM244.232 96.32L244.94 97.748L246.516 97.976L245.376 99.088L245.644 100.66L244.232 99.916L242.824 100.66L243.092 99.088L241.952 97.976L243.528 97.748L244.232 96.32Z" fill="white"/>
<path d="M36.2039 93.944C37.2356 93.944 38.0719 93.1077 38.0719 92.076C38.0719 91.0443 37.2356 90.208 36.2039 90.208C35.1723 90.208 34.3359 91.0443 34.3359 92.076C34.3359 93.1077 35.1723 93.944 36.2039 93.944Z" fill="white"/>
<path d="M177.948 52.4081C185.188 59.6801 196.948 59.7121 204.224 52.4761C211.496 45.2401 211.528 33.4761 204.292 26.2041C197.056 18.9321 185.292 18.9001 178.02 26.1361C170.744 33.3721 170.712 45.1361 177.948 52.4081Z" fill="white"/>
<path d="M2.93994 139.624L133.32 138.532L136.208 138.64L175.66 138.532L181.604 109.156L22.9679 27.408" fill="url(#paint10_linear_3_398)"/>
<path opacity="0.2" d="M169.424 44.3799C167.932 44.3799 166.536 44.7879 165.344 45.4999C165.06 41.3399 161.596 38.0559 157.368 38.0559C156.336 38.0559 155.352 38.2519 154.448 38.6079C153.296 34.7519 149.724 31.9399 145.492 31.9399C140.332 31.9399 136.144 36.1239 136.144 41.2879C136.144 41.4199 136.148 41.5519 136.156 41.6799H136.144C130.984 41.6799 126.796 45.8639 126.796 51.0279C126.796 56.1879 130.98 60.3759 136.144 60.3759C136.468 60.3759 136.784 60.3599 137.1 60.3279H168.552C168.84 60.3599 169.128 60.3759 169.424 60.3759C173.84 60.3759 177.42 56.7959 177.42 52.3799C177.42 47.9599 173.84 44.3799 169.424 44.3799Z" fill="url(#paint11_linear_3_398)"/>
<defs>
<linearGradient id="paint0_linear_3_398" x1="133.826" y1="-2.5344" x2="133.826" y2="238.363" gradientUnits="userSpaceOnUse">
<stop stop-color="#7700BB"/>
<stop offset="1"/>
</linearGradient>
<linearGradient id="paint1_linear_3_398" x1="226.035" y1="193.634" x2="227.285" y2="193.634" gradientUnits="userSpaceOnUse">
<stop offset="0.041" stop-color="#100060"/>
<stop offset="1" stop-color="#090E96"/>
</linearGradient>
<linearGradient id="paint2_linear_3_398" x1="132.547" y1="125.424" x2="184.843" y2="125.424" gradientUnits="userSpaceOnUse">
<stop stop-color="#A1BAFF"/>
<stop offset="0.433" stop-color="white"/>
</linearGradient>
<linearGradient id="paint3_linear_3_398" x1="164.688" y1="141.674" x2="177.389" y2="141.674" gradientUnits="userSpaceOnUse">
<stop stop-color="#A1BAFF"/>
<stop offset="0.433" stop-color="white"/>
</linearGradient>
<linearGradient id="paint4_linear_3_398" x1="66.6107" y1="123.952" x2="127.502" y2="123.952" gradientUnits="userSpaceOnUse">
<stop stop-color="#311341"/>
<stop offset="0.23" stop-color="#3113C2"/>
<stop offset="0.348" stop-color="#2F18C5"/>
<stop offset="0.493" stop-color="#2927CC"/>
<stop offset="0.652" stop-color="#1F40D8"/>
<stop offset="0.822" stop-color="#1263E9"/>
<stop offset="0.998" stop-color="#008FFF"/>
<stop offset="1" stop-color="#0090FF"/>
</linearGradient>
<linearGradient id="paint5_linear_3_398" x1="73.6496" y1="76.4639" x2="84.4421" y2="105.118" gradientUnits="userSpaceOnUse">
<stop stop-color="#A1BAFF"/>
<stop offset="0.433" stop-color="white"/>
</linearGradient>
<linearGradient id="paint6_linear_3_398" x1="105.904" y1="187.952" x2="107.764" y2="230.747" gradientUnits="userSpaceOnUse">
<stop offset="0.041" stop-color="#100022"/>
<stop offset="1" stop-color="#090E96"/>
</linearGradient>
<linearGradient id="paint7_linear_3_398" x1="103.23" y1="176.496" x2="152.851" y2="233.063" gradientUnits="userSpaceOnUse">
<stop offset="0.041" stop-color="#10003B"/>
<stop offset="1" stop-color="#090E96"/>
</linearGradient>
<linearGradient id="paint8_linear_3_398" x1="54.2977" y1="143.264" x2="104.536" y2="143.264" gradientUnits="userSpaceOnUse">
<stop stop-color="#7633FF"/>
<stop offset="0.159" stop-color="#7137FF"/>
<stop offset="0.353" stop-color="#6243FF"/>
<stop offset="0.568" stop-color="#4957FF"/>
<stop offset="0.794" stop-color="#2672FF"/>
<stop offset="1" stop-color="#0090FF"/>
</linearGradient>
<linearGradient id="paint9_linear_3_398" x1="89.5621" y1="119.621" x2="147.691" y2="140.088" gradientUnits="userSpaceOnUse">
<stop stop-color="#7633FF"/>
<stop offset="0.097" stop-color="#7137FF"/>
<stop offset="0.216" stop-color="#6243FF"/>
<stop offset="0.346" stop-color="#4957FF"/>
<stop offset="0.484" stop-color="#2672FF"/>
<stop offset="0.61" stop-color="#0090FF"/>
</linearGradient>
<linearGradient id="paint10_linear_3_398" x1="14.6855" y1="83.854" x2="220.496" y2="123.86" gradientUnits="userSpaceOnUse">
<stop offset="0.004" stop-color="#7633FF" stop-opacity="0"/>
<stop offset="0.092" stop-color="#7051FF" stop-opacity="0.088"/>
<stop offset="0.263" stop-color="#6685FF" stop-opacity="0.26"/>
<stop offset="0.43" stop-color="#5EB1FF" stop-opacity="0.428"/>
<stop offset="0.591" stop-color="#57D3FF" stop-opacity="0.589"/>
<stop offset="0.743" stop-color="#53EBFF" stop-opacity="0.742"/>
<stop offset="0.883" stop-color="#50FAFF" stop-opacity="0.883"/>
<stop offset="1" stop-color="#4FFFFF"/>
</linearGradient>
<linearGradient id="paint11_linear_3_398" x1="126.797" y1="46.1587" x2="177.421" y2="46.1587" gradientUnits="userSpaceOnUse">
<stop stop-color="#A1BAFF"/>
<stop offset="0.089" stop-color="#ACC2FF"/>
<stop offset="0.499" stop-color="#D9E3FF"/>
<stop offset="0.816" stop-color="#F5F7FF"/>
<stop offset="1" stop-color="white"/>
</linearGradient>
</defs>
</svg>
