<svg width="64" height="64" viewBox="0 0 64 64" fill="none" xmlns="http://www.w3.org/2000/svg">
<path d="M30.1066 41.8933C30.3602 42.1361 30.6592 42.3264 30.9866 42.4533C31.6358 42.7201 32.364 42.7201 33.0133 42.4533C33.3406 42.3264 33.6396 42.1361 33.8933 41.8933L41.8933 33.8933C42.3954 33.3912 42.6775 32.7101 42.6775 32C42.6775 31.2899 42.3954 30.6088 41.8933 30.1067C41.3911 29.6045 40.7101 29.3224 39.9999 29.3224C39.2898 29.3224 38.6087 29.6045 38.1066 30.1067L34.6666 33.5733V24C34.6666 23.2928 34.3856 22.6145 33.8855 22.1144C33.3854 21.6143 32.7072 21.3333 31.9999 21.3333C31.2927 21.3333 30.6144 21.6143 30.1143 22.1144C29.6142 22.6145 29.3333 23.2928 29.3333 24V33.5733L25.8933 30.1067C25.6454 29.8567 25.3504 29.6583 25.0255 29.523C24.7005 29.3876 24.352 29.3179 23.9999 29.3179C23.6479 29.3179 23.2993 29.3876 22.9744 29.523C22.6494 29.6583 22.3545 29.8567 22.1066 30.1067C21.8566 30.3546 21.6583 30.6495 21.5229 30.9745C21.3875 31.2994 21.3178 31.648 21.3178 32C21.3178 32.352 21.3875 32.7006 21.5229 33.0255C21.6583 33.3505 21.8566 33.6454 22.1066 33.8933L30.1066 41.8933ZM31.9999 58.6667C37.2741 58.6667 42.4298 57.1027 46.8151 54.1725C51.2004 51.2424 54.6184 47.0776 56.6367 42.2049C58.6551 37.3322 59.1831 31.9704 58.1542 26.7976C57.1253 21.6248 54.5855 16.8732 50.8561 13.1438C47.1267 9.41443 42.3752 6.87467 37.2023 5.84573C32.0295 4.81679 26.6677 5.34488 21.795 7.36322C16.9223 9.38156 12.7576 12.7995 9.8274 17.1848C6.89722 21.5701 5.33325 26.7258 5.33325 32C5.33325 39.0724 8.14277 45.8552 13.1437 50.8562C15.62 53.3324 18.5597 55.2967 21.795 56.6368C25.0304 57.9769 28.498 58.6667 31.9999 58.6667ZM31.9999 10.6667C36.2193 10.6667 40.3438 11.9179 43.8521 14.262C47.3603 16.6061 50.0947 19.9379 51.7094 23.8361C53.324 27.7343 53.7465 32.0237 52.9233 36.1619C52.1002 40.3002 50.0684 44.1014 47.0849 47.085C44.1013 50.0685 40.3001 52.1003 36.1618 52.9234C32.0236 53.7466 27.7342 53.3241 23.836 51.7094C19.9378 50.0948 16.606 47.3604 14.2619 43.8522C11.9178 40.3439 10.6666 36.2193 10.6666 32C10.6666 26.3421 12.9142 20.9158 16.915 16.9151C20.9158 12.9143 26.342 10.6667 31.9999 10.6667Z" fill="url(#paint0_linear_1_50)"/>
<defs>
<linearGradient id="paint0_linear_1_50" x1="7.99992" y1="5.00001" x2="58.9999" y2="54" gradientUnits="userSpaceOnUse">
<stop stop-color="#E649FF"/>
<stop offset="1" stop-color="#00D1FF" stop-opacity="0.5"/>
</linearGradient>
</defs>
</svg>
