<svg width="18" height="23" viewBox="0 0 18 23" fill="none" xmlns="http://www.w3.org/2000/svg">
<g clip-path="url(#clip0_1_74)">
<path d="M8.9996 0H0L1.60042 20.7672L8.9996 23L16.3996 20.7672L18 0H8.9996ZM15.0891 19.5438L9.0004 21.3812L2.91166 19.5438L1.52595 1.56312H16.4741L15.0891 19.5438Z" fill="white"/>
<path d="M9.19145 18.5335L14.026 16.9704L14.5101 9.15572H9.59394L14.6376 6.7133L14.8001 4.1311H3.10034L3.29366 6.47533H8.96724L3.48698 9.04337L3.6803 11.6114H11.8749L11.7054 14.9615L9.19145 15.854L6.19423 15.2958L6.09757 13.286H3.87362L4.16359 17.0828L9.19145 18.5335Z" fill="white"/>
</g>
<defs>
<clipPath id="clip0_1_74">
<rect width="18" height="23" fill="white"/>
</clipPath>
</defs>
</svg>
