<svg width="23" height="23" viewBox="0 0 23 23" fill="none" xmlns="http://www.w3.org/2000/svg">
<g clip-path="url(#clip0_1_104)">
<path d="M8.99562 10.8007H13.8128C14.5472 10.7906 15.2555 10.5277 15.8188 10.0564C16.382 9.58516 16.7656 8.93422 16.9051 8.2132V2.36098C16.9051 2.36098 15.7487 -0.19458 11.0848 -0.19458C6.4209 -0.19458 5.62868 1.9457 5.62868 1.9457V4.95486H11.2701V6.06653H3.75673C3.23303 6.06316 2.71384 6.1635 2.22911 6.36178C1.74438 6.56005 1.3037 6.85233 0.932484 7.22176C0.561271 7.59119 0.266873 8.03046 0.0662689 8.51423C-0.134336 8.998 -0.237176 9.51671 -0.236322 10.0404V13.3371C-0.237162 13.7949 -0.147719 14.2483 0.0268891 14.6715C0.201497 15.0947 0.457842 15.4793 0.781254 15.8033C1.10467 16.1273 1.4888 16.3844 1.91166 16.5598C2.33453 16.7351 2.78783 16.8254 3.24562 16.8254H5.11118V14.6788C5.11033 14.1687 5.21028 13.6635 5.40527 13.1922C5.60026 12.7209 5.88646 12.2928 6.24741 11.9324C6.60837 11.572 7.03697 11.2866 7.5086 11.0923C7.98022 10.8981 8.48558 10.799 8.99562 10.8007ZM8.12673 3.51098C7.93593 3.51098 7.74941 3.4544 7.59076 3.34839C7.43211 3.24239 7.30846 3.09172 7.23545 2.91544C7.16243 2.73916 7.14332 2.54518 7.18055 2.35805C7.21777 2.17091 7.30965 1.99901 7.44457 1.86409C7.57949 1.72917 7.75139 1.63729 7.93853 1.60007C8.12566 1.56284 8.31964 1.58195 8.49592 1.65497C8.6722 1.72798 8.82287 1.85163 8.92887 2.01028C9.03488 2.16893 9.09146 2.35545 9.09146 2.54625C9.08978 2.8016 8.9876 3.04601 8.80705 3.22656C8.62649 3.40712 8.38208 3.5093 8.12673 3.51098Z" fill="white"/>
<path d="M19.7544 5.53613H17.8889V7.67641C17.8897 8.18538 17.7902 8.68953 17.596 9.16C17.4018 9.63047 17.1167 10.058 16.7571 10.4182C16.3975 10.7784 15.9704 11.0642 15.5003 11.2591C15.0301 11.4541 14.5262 11.5545 14.0172 11.5545H9.18719C8.45288 11.5646 7.74449 11.8274 7.18128 12.2987C6.61806 12.77 6.23443 13.4209 6.09497 14.142V19.9942C6.09497 19.9942 7.25136 22.5497 11.9152 22.5497C16.5791 22.5497 17.3714 20.4095 17.3714 20.4095V17.4195H11.73V16.2886H19.2433C19.767 16.292 20.2862 16.1917 20.7709 15.9934C21.2557 15.7951 21.6963 15.5028 22.0676 15.1334C22.4388 14.764 22.7332 14.3247 22.9338 13.8409C23.1344 13.3572 23.2372 12.8385 23.2364 12.3147V9.02447C23.2372 8.56667 23.1478 8.11321 22.9731 7.69002C22.7985 7.26683 22.5422 6.88223 22.2188 6.55823C21.8954 6.23422 21.5112 5.97717 21.0884 5.80179C20.6655 5.62641 20.2122 5.53613 19.7544 5.53613ZM14.8733 18.8442C15.0641 18.8442 15.2506 18.9008 15.4093 19.0068C15.5679 19.1128 15.6916 19.2634 15.7646 19.4397C15.8376 19.616 15.8567 19.81 15.8195 19.9971C15.7823 20.1843 15.6904 20.3562 15.5555 20.4911C15.4205 20.626 15.2487 20.7179 15.0615 20.7551C14.8744 20.7923 14.6804 20.7732 14.5041 20.7002C14.3278 20.6272 14.1772 20.5035 14.0712 20.3449C13.9652 20.1862 13.9086 19.9997 13.9086 19.8089C13.9103 19.5536 14.0124 19.3092 14.193 19.1286C14.3736 18.948 14.618 18.8459 14.8733 18.8442Z" fill="white"/>
</g>
<defs>
<clipPath id="clip0_1_104">
<rect width="23" height="23" fill="white"/>
</clipPath>
</defs>
</svg>
